<?xml version="1.0" encoding="UTF-8"?>
<svg xmlns="http://www.w3.org/2000/svg" xmlns:xlink="http://www.w3.org/1999/xlink" width="60pt" height="60pt" viewBox="0 0 60 60" version="1.1">
<g id="surface1">
<path style=" stroke:none;fill-rule:nonzero;fill:rgb(37.254902%,100%,72.941176%);fill-opacity:1;" d="M 33.75 52.5 C 33.75 53.535156 32.910156 54.375 31.875 54.375 C 30.839844 54.375 30 53.535156 30 52.5 C 30 51.464844 30.839844 50.625 31.875 50.625 C 32.910156 50.625 33.75 51.464844 33.75 52.5 Z M 33.75 52.5 "/>
<path style=" stroke:none;fill-rule:nonzero;fill:rgb(17.647059%,13.333333%,12.54902%);fill-opacity:1;" d="M 24.375 7.5 L 35.625 7.5 L 35.625 9.375 L 24.375 9.375 Z M 24.375 7.5 "/>
<path style=" stroke:none;fill-rule:nonzero;fill:rgb(17.647059%,13.333333%,12.54902%);fill-opacity:1;" d="M 24.375 7.5 L 24.375 9.375 L 35.625 9.375 L 35.625 7.5 Z M 24.375 7.5 L 24.375 9.375 L 35.625 9.375 L 35.625 7.5 Z M 24.375 7.5 L 24.375 9.375 L 35.625 9.375 L 35.625 7.5 Z M 24.375 7.5 L 24.375 9.375 L 35.625 9.375 L 35.625 7.5 Z M 18.75 45 L 18.75 46.875 L 41.25 46.875 L 41.25 45 Z M 24.375 7.5 L 24.375 9.375 L 35.625 9.375 L 35.625 7.5 Z M 18.75 45 L 18.75 46.875 L 41.25 46.875 L 41.25 45 Z M 24.375 7.5 L 24.375 9.375 L 35.625 9.375 L 35.625 7.5 Z M 18.75 45 L 18.75 46.875 L 41.25 46.875 L 41.25 45 Z M 43.125 3.75 L 16.875 3.75 C 15.84375 3.75 15 4.59375 15 5.625 L 15 15 L 16.875 15 L 16.875 13.125 L 43.125 13.125 L 43.125 52.5 C 43.125 53.53125 42.28125 54.375 41.25 54.375 L 18.75 54.375 C 17.71875 54.375 16.875 53.53125 16.875 52.5 L 16.875 24.375 L 15 24.375 L 15 54.375 C 15 55.40625 15.84375 56.25 16.875 56.25 L 43.125 56.25 C 44.15625 56.25 45 55.40625 45 54.375 L 45 5.625 C 45 4.59375 44.15625 3.75 43.125 3.75 Z M 43.125 11.25 L 16.875 11.25 L 16.875 7.5 C 16.875 6.46875 17.71875 5.625 18.75 5.625 L 41.25 5.625 C 42.28125 5.625 43.125 6.46875 43.125 7.5 Z M 41.25 45 L 18.75 45 L 18.75 46.875 L 41.25 46.875 Z M 24.375 9.375 L 35.625 9.375 L 35.625 7.5 L 24.375 7.5 Z M 18.75 45 L 18.75 46.875 L 41.25 46.875 L 41.25 45 Z M 24.375 7.5 L 24.375 9.375 L 35.625 9.375 L 35.625 7.5 Z M 24.375 7.5 L 24.375 9.375 L 35.625 9.375 L 35.625 7.5 Z M 24.375 7.5 L 24.375 9.375 L 35.625 9.375 L 35.625 7.5 Z M 24.375 7.5 L 24.375 9.375 L 35.625 9.375 L 35.625 7.5 Z M 24.375 7.5 "/>
<path style=" stroke:none;fill-rule:nonzero;fill:rgb(17.647059%,13.333333%,12.54902%);fill-opacity:1;" d="M 24.375 7.5 L 35.625 7.5 L 35.625 9.375 L 24.375 9.375 Z M 24.375 7.5 "/>
<path style=" stroke:none;fill-rule:nonzero;fill:rgb(17.647059%,13.333333%,12.54902%);fill-opacity:1;" d="M 24.375 7.5 L 35.625 7.5 L 35.625 9.375 L 24.375 9.375 Z M 24.375 7.5 "/>
<path style=" stroke:none;fill-rule:nonzero;fill:rgb(17.647059%,13.333333%,12.54902%);fill-opacity:1;" d="M 24.375 7.5 L 35.625 7.5 L 35.625 9.375 L 24.375 9.375 Z M 24.375 7.5 "/>
<path style=" stroke:none;fill-rule:nonzero;fill:rgb(37.254902%,100%,72.941176%);fill-opacity:1;" d="M 26.25 9.375 L 37.5 9.375 L 37.5 11.25 L 26.25 11.25 Z M 26.25 9.375 "/>
<path style=" stroke:none;fill-rule:nonzero;fill:rgb(37.254902%,100%,72.941176%);fill-opacity:1;" d="M 28.125 13.125 L 30 13.125 L 30 45 L 28.125 45 Z M 28.125 13.125 "/>
<path style=" stroke:none;fill-rule:nonzero;fill:rgb(37.254902%,100%,72.941176%);fill-opacity:1;" d="M 24.375 13.125 L 26.25 13.125 L 26.25 45 L 24.375 45 Z M 24.375 13.125 "/>
<path style=" stroke:none;fill-rule:nonzero;fill:rgb(37.254902%,100%,72.941176%);fill-opacity:1;" d="M 31.875 13.125 L 43.125 13.125 L 43.125 45 L 31.875 45 Z M 31.875 13.125 "/>
<path style=" stroke:none;fill-rule:nonzero;fill:rgb(17.647059%,13.333333%,12.54902%);fill-opacity:1;" d="M 31.875 50.625 C 31.875 51.660156 31.035156 52.5 30 52.5 C 28.964844 52.5 28.125 51.660156 28.125 50.625 C 28.125 49.589844 28.964844 48.75 30 48.75 C 31.035156 48.75 31.875 49.589844 31.875 50.625 Z M 31.875 50.625 "/>
<path style=" stroke:none;fill-rule:nonzero;fill:rgb(17.647059%,13.333333%,12.54902%);fill-opacity:1;" d="M 18.75 17.8125 C 18.75 17.296875 18.328125 16.875 17.8125 16.875 L 14.0625 16.875 C 13.546875 16.875 13.125 17.296875 13.125 17.8125 C 13.125 18.328125 13.546875 18.75 14.0625 18.75 L 17.8125 18.75 C 18.328125 18.75 18.75 18.328125 18.75 17.8125 Z M 18.75 17.8125 "/>
<path style=" stroke:none;fill-rule:nonzero;fill:rgb(17.647059%,13.333333%,12.54902%);fill-opacity:1;" d="M 18.75 21.5625 C 18.75 21.046875 18.328125 20.625 17.8125 20.625 L 14.0625 20.625 C 13.546875 20.625 13.125 21.046875 13.125 21.5625 C 13.125 22.078125 13.546875 22.5 14.0625 22.5 L 17.8125 22.5 C 18.328125 22.5 18.75 22.078125 18.75 21.5625 Z M 18.75 21.5625 "/>
</g>
</svg>
