<?xml version="1.0" encoding="UTF-8"?>
<svg xmlns="http://www.w3.org/2000/svg" xmlns:xlink="http://www.w3.org/1999/xlink" width="60pt" height="60pt" viewBox="0 0 60 60" version="1.1">
<g id="surface1">
<path style=" stroke:none;fill-rule:nonzero;fill:rgb(17.647059%,13.333333%,12.54902%);fill-opacity:1;" d="M 48.75 13.125 L 48.75 37.5 L 29.0625 37.5 C 28.539062 37.5 28.125 37.085938 28.125 36.5625 C 28.125 36.039062 28.539062 35.625 29.0625 35.625 L 46.875 35.625 L 46.875 15 L 13.125 15 L 13.125 35.625 L 15.9375 35.625 C 16.460938 35.625 16.875 36.039062 16.875 36.5625 C 16.875 37.085938 16.460938 37.5 15.9375 37.5 L 11.25 37.5 L 11.25 13.125 Z M 48.75 13.125 "/>
<path style=" stroke:none;fill-rule:nonzero;fill:rgb(100%,83.529412%,38.039216%);fill-opacity:1;" d="M 26.25 15 L 46.875 15 L 46.875 35.625 L 26.25 35.625 Z M 26.25 15 "/>
<path style=" stroke:none;fill-rule:nonzero;fill:rgb(100%,83.529412%,38.039216%);fill-opacity:1;" d="M 22.5 15 L 24.375 15 L 24.375 35.625 L 22.5 35.625 Z M 22.5 15 "/>
<path style=" stroke:none;fill-rule:nonzero;fill:rgb(100%,83.529412%,38.039216%);fill-opacity:1;" d="M 18.75 15 L 20.625 15 L 20.625 35.625 L 18.75 35.625 Z M 18.75 15 "/>
<path style=" stroke:none;fill-rule:nonzero;fill:rgb(100%,83.529412%,38.039216%);fill-opacity:1;" d="M 1.875 52.5 L 58.125 52.5 L 58.125 54.375 L 1.875 54.375 Z M 1.875 52.5 "/>
<path style=" stroke:none;fill-rule:nonzero;fill:rgb(17.647059%,13.333333%,12.54902%);fill-opacity:1;" d="M 43.125 10.3125 C 43.125 10.835938 42.710938 11.25 42.1875 11.25 L 27.1875 11.25 C 26.664062 11.25 26.25 10.835938 26.25 10.3125 C 26.25 9.789062 26.664062 9.375 27.1875 9.375 L 42.1875 9.375 C 42.710938 9.375 43.125 9.789062 43.125 10.3125 Z M 43.125 10.3125 "/>
<path style=" stroke:none;fill-rule:nonzero;fill:rgb(17.647059%,13.333333%,12.54902%);fill-opacity:1;" d="M 57.863281 49.667969 L 52.238281 40.292969 C 52.125 40.105469 51.972656 39.9375 51.804688 39.804688 C 52.21875 39.261719 52.5 38.53125 52.5 37.5 L 52.5 13.125 C 52.5 13.125 52.5 9.375 48.75 9.375 C 45 9.375 45 9.375 45 9.375 L 45.9375 9.375 C 45.414062 9.375 45 9.789062 45 10.3125 C 45 10.835938 45.414062 11.25 45.9375 11.25 L 48.75 11.25 C 50.269531 11.25 50.605469 12.28125 50.625 13.125 L 50.625 37.5 C 50.625 39.019531 49.59375 39.355469 48.75 39.375 L 11.25 39.375 C 9.730469 39.375 9.394531 38.34375 9.375 37.5 L 9.375 13.125 C 9.375 11.605469 10.40625 11.269531 11.25 11.25 L 42.1875 11.25 C 42.710938 11.25 43.125 10.835938 43.125 10.3125 C 43.125 9.789062 42.710938 9.375 42.1875 9.375 L 11.25 9.375 C 11.25 9.375 7.5 9.375 7.5 13.125 L 7.5 37.5 C 7.5 37.5 7.5 38.738281 8.210938 39.789062 C 8.042969 39.917969 7.875 40.085938 7.761719 40.296875 L 2.136719 49.671875 C 1.800781 50.234375 1.78125 50.960938 2.117188 51.546875 C 2.457031 52.144531 3.074219 52.5 3.75 52.5 L 56.25 52.5 C 56.925781 52.5 57.542969 52.144531 57.882812 51.542969 C 58.21875 50.960938 58.199219 50.230469 57.863281 49.667969 Z M 3.75 50.625 L 9.375 41.25 L 50.625 41.25 L 56.25 50.625 Z M 3.75 50.625 "/>
<path style=" stroke:none;fill-rule:nonzero;fill:rgb(17.647059%,13.333333%,12.54902%);fill-opacity:1;" d="M 26.25 36.5625 C 26.25 36.046875 25.828125 35.625 25.3125 35.625 L 19.6875 35.625 C 19.171875 35.625 18.75 36.046875 18.75 36.5625 C 18.75 37.078125 19.171875 37.5 19.6875 37.5 L 25.3125 37.5 C 25.828125 37.5 26.25 37.078125 26.25 36.5625 Z M 26.25 36.5625 "/>
<path style=" stroke:none;fill-rule:nonzero;fill:rgb(17.647059%,13.333333%,12.54902%);fill-opacity:1;" d="M 35.625 47.8125 C 35.625 47.296875 35.203125 46.875 34.6875 46.875 L 10.3125 46.875 C 9.796875 46.875 9.375 47.296875 9.375 47.8125 C 9.375 48.328125 9.796875 48.75 10.3125 48.75 L 34.6875 48.75 C 35.203125 48.75 35.625 48.328125 35.625 47.8125 Z M 35.625 47.8125 "/>
<path style=" stroke:none;fill-rule:nonzero;fill:rgb(17.647059%,13.333333%,12.54902%);fill-opacity:1;" d="M 43.125 47.8125 C 43.125 47.296875 42.703125 46.875 42.1875 46.875 L 40.3125 46.875 C 39.796875 46.875 39.375 47.296875 39.375 47.8125 C 39.375 48.328125 39.796875 48.75 40.3125 48.75 L 42.1875 48.75 C 42.703125 48.75 43.125 48.328125 43.125 47.8125 Z M 43.125 47.8125 "/>
<path style=" stroke:none;fill-rule:nonzero;fill:rgb(17.647059%,13.333333%,12.54902%);fill-opacity:1;" d="M 50.625 47.8125 C 50.625 47.296875 50.203125 46.875 49.6875 46.875 L 47.8125 46.875 C 47.296875 46.875 46.875 47.296875 46.875 47.8125 C 46.875 48.328125 47.296875 48.75 47.8125 48.75 L 49.6875 48.75 C 50.203125 48.75 50.625 48.328125 50.625 47.8125 Z M 50.625 47.8125 "/>
<path style=" stroke:none;fill-rule:nonzero;fill:rgb(17.647059%,13.333333%,12.54902%);fill-opacity:1;" d="M 46.875 44.0625 C 46.875 43.546875 46.453125 43.125 45.9375 43.125 L 29.0625 43.125 C 28.546875 43.125 28.125 43.546875 28.125 44.0625 C 28.125 44.578125 28.546875 45 29.0625 45 L 45.9375 45 C 46.453125 45 46.875 44.578125 46.875 44.0625 Z M 46.875 44.0625 "/>
<path style=" stroke:none;fill-rule:nonzero;fill:rgb(17.647059%,13.333333%,12.54902%);fill-opacity:1;" d="M 24.375 44.0625 C 24.375 43.546875 23.953125 43.125 23.4375 43.125 L 21.5625 43.125 C 21.046875 43.125 20.625 43.546875 20.625 44.0625 C 20.625 44.578125 21.046875 45 21.5625 45 L 23.4375 45 C 23.953125 45 24.375 44.578125 24.375 44.0625 Z M 24.375 44.0625 "/>
<path style=" stroke:none;fill-rule:nonzero;fill:rgb(17.647059%,13.333333%,12.54902%);fill-opacity:1;" d="M 16.875 44.0625 C 16.875 43.546875 16.453125 43.125 15.9375 43.125 L 14.0625 43.125 C 13.546875 43.125 13.125 43.546875 13.125 44.0625 C 13.125 44.578125 13.546875 45 14.0625 45 L 15.9375 45 C 16.453125 45 16.875 44.578125 16.875 44.0625 Z M 16.875 44.0625 "/>
</g>
</svg>
