<?xml version="1.0" encoding="UTF-8"?>
<svg xmlns="http://www.w3.org/2000/svg" xmlns:xlink="http://www.w3.org/1999/xlink" width="60pt" height="60pt" viewBox="0 0 60 60" version="1.1">
<g id="surface1">
<path style=" stroke:none;fill-rule:nonzero;fill:rgb(100%,83.529412%,38.039216%);fill-opacity:1;" d="M 22.5 15 L 24.375 15 L 24.375 41.25 L 22.5 41.25 Z M 22.5 15 "/>
<path style=" stroke:none;fill-rule:nonzero;fill:rgb(100%,83.529412%,38.039216%);fill-opacity:1;" d="M 18.75 15 L 20.625 15 L 20.625 41.25 L 18.75 41.25 Z M 18.75 15 "/>
<path style=" stroke:none;fill-rule:nonzero;fill:rgb(100%,83.529412%,38.039216%);fill-opacity:1;" d="M 26.25 15 L 26.25 41.25 L 52.5 41.25 L 52.5 18.75 C 52.5 18.75 50.625 15 48.75 15 Z M 26.25 15 "/>
<path style=" stroke:none;fill-rule:nonzero;fill:rgb(17.647059%,13.333333%,12.54902%);fill-opacity:1;" d="M 53.4375 11.25 L 6.5625 11.25 C 5.007812 11.25 3.75 12.507812 3.75 14.0625 L 3.75 44.0625 C 3.75 45.617188 5.007812 46.875 6.5625 46.875 L 28.125 46.875 L 28.125 50.625 L 18.75 50.625 L 18.75 52.5 L 41.25 52.5 L 41.25 50.625 L 31.875 50.625 L 31.875 46.875 L 53.4375 46.875 C 54.992188 46.875 56.25 45.617188 56.25 44.0625 L 56.25 14.0625 C 56.25 12.507812 54.992188 11.25 53.4375 11.25 Z M 54.375 39.375 L 11.25 39.375 L 11.25 41.25 L 54.375 41.25 L 54.375 44.0625 C 54.375 44.585938 53.960938 45 53.4375 45 L 6.5625 45 C 6.039062 45 5.625 44.585938 5.625 44.0625 L 5.625 14.0625 C 5.625 13.539062 6.039062 13.125 6.5625 13.125 L 53.4375 13.125 C 53.960938 13.125 54.375 13.539062 54.375 14.0625 Z M 54.375 39.375 "/>
<path style=" stroke:none;fill-rule:nonzero;fill:rgb(17.647059%,13.333333%,12.54902%);fill-opacity:1;" d="M 52.5 17.8125 L 52.5 36.5625 L 50.625 36.5625 L 50.625 17.8125 C 50.625 17.0625 50.101562 16.894531 49.667969 16.875 L 10.3125 16.875 C 9.5625 16.875 9.394531 17.382812 9.375 17.832031 L 9.375 41.25 L 7.5 41.25 L 7.5 17.8125 C 7.5 16.6875 8.25 15 10.3125 15 L 49.6875 15 C 50.8125 15 52.5 15.75 52.5 17.8125 Z M 52.5 17.8125 "/>
<path style=" stroke:none;fill-rule:nonzero;fill:rgb(100%,83.529412%,38.039216%);fill-opacity:1;" d="M 20.625 52.5 L 35.625 52.5 L 35.625 54.375 L 20.625 54.375 Z M 20.625 52.5 "/>
<path style=" stroke:none;fill-rule:nonzero;fill:rgb(100%,83.529412%,38.039216%);fill-opacity:1;" d="M 37.5 52.5 L 43.125 52.5 L 43.125 54.375 L 37.5 54.375 Z M 37.5 52.5 "/>
</g>
</svg>
